<svg width="56" height="55" viewBox="0 0 56 55" fill="none" xmlns="http://www.w3.org/2000/svg">
<path d="M46.234 0.121826H9.9941C5.01107 0.121826 0.934082 4.19882 0.934082 9.18184V45.4218C0.934082 50.4048 5.01107 54.4818 9.9941 54.4818H46.2341C51.2171 54.4818 55.2941 50.4048 55.2941 45.4218V9.18184C55.294 4.19882 51.217 0.121826 46.234 0.121826ZM26.9789 27.783C25.0921 29.6698 22.1268 30.5558 18.7767 30.5558C17.891 30.5558 17.0824 30.517 16.4661 30.4015V40.1825H11.7685V14.5749C13.4628 14.2669 15.8119 14.0356 19.0076 14.0356C22.4737 14.0356 25.0152 14.7673 26.6711 16.1537C28.2115 17.4247 29.2125 19.4654 29.2125 21.8914C29.2124 24.356 28.4423 26.3967 26.9789 27.783ZM36.8351 40.5679C34.5631 40.5679 32.5223 40.0287 31.136 39.2584L32.0601 35.8313C33.1382 36.4859 35.1793 37.1792 36.8736 37.1792C38.9528 37.1792 39.8774 36.332 39.8774 35.0996C39.8774 33.8291 39.1073 33.1742 36.7966 32.3656C33.1381 31.0947 31.5983 29.0925 31.6367 26.8974C31.6367 23.5857 34.3706 21.0058 38.722 21.0058C40.8016 21.0058 42.6114 21.545 43.6894 22.1224L42.7652 25.4726C41.9566 25.0107 40.4546 24.3944 38.7989 24.3944C37.1045 24.3944 36.1804 25.2031 36.1804 26.3582C36.1804 27.5522 37.0661 28.1299 39.4537 28.977C42.8423 30.2091 44.4211 31.9419 44.4597 34.7148C44.4595 38.1034 41.8027 40.5679 36.8351 40.5679ZM24.4759 22.0839C24.4759 25.1261 22.3192 26.8589 18.7767 26.8589C17.8141 26.8589 17.0439 26.8204 16.4661 26.6665V17.8866C16.967 17.7711 17.8911 17.6556 19.2005 17.6556C22.4737 17.6556 24.4759 19.196 24.4759 22.0839Z" fill="#5D594F"/>
</svg>
