<svg width="59" height="66" viewBox="0 0 59 66" fill="none" xmlns="http://www.w3.org/2000/svg">
<path fill-rule="evenodd" clip-rule="evenodd" d="M37.2671 46.435C26.8074 46.435 24.6145 41.6718 24.6145 37.6337C24.6145 37.4512 24.6873 37.2762 24.8167 37.1472C24.9462 37.0182 25.1217 36.9457 25.3048 36.9457H28.3949C28.5592 36.9463 28.7178 37.0052 28.8424 37.1119C28.967 37.2186 29.0493 37.3661 29.0745 37.5279C29.5418 40.6663 30.9276 42.2487 37.2565 42.2487C42.2952 42.2487 44.435 41.1002 44.435 38.454C44.435 36.9192 43.8244 35.8078 35.9982 35.0192C29.4515 34.3736 25.3791 32.9393 25.3791 27.7157C25.3791 22.9102 29.4462 20.047 36.2636 20.047C43.92 20.047 47.711 22.6932 48.1888 28.3878C48.1965 28.4841 48.184 28.5809 48.152 28.672C48.12 28.7631 48.0692 28.8466 48.003 28.9171C47.9347 28.9887 47.8523 29.0454 47.7609 29.0837C47.6695 29.122 47.5711 29.1409 47.472 29.1394H44.4191C44.2639 29.1397 44.1132 29.0875 43.9917 28.9914C43.8701 28.8953 43.7849 28.7608 43.7501 28.6101C43.0014 25.3129 41.1962 24.2544 36.2796 24.2544C30.7789 24.2439 30.1364 26.1544 30.1364 27.5834C30.1364 29.3193 30.8904 29.8274 38.3131 30.8065C45.7358 31.7856 49.1551 33.1616 49.1551 38.3005C49.1551 43.4395 44.812 46.4668 37.2353 46.4668L37.2671 46.435ZM29.8816 65.3819C29.002 65.3824 28.1378 65.1525 27.3755 64.7151L19.4112 60.0048C18.2166 59.338 18.8006 59.1051 19.1935 58.9463C20.4602 58.5496 21.6728 57.9986 22.804 57.3057C22.8985 57.2615 23.0028 57.2422 23.1069 57.2496C23.211 57.257 23.3114 57.2909 23.3987 57.348L29.5312 60.9733C29.6459 61.0331 29.7734 61.0644 29.9028 61.0644C30.0323 61.0644 30.1598 61.0331 30.2745 60.9733L54.1673 47.213C54.2792 47.1462 54.3718 47.0515 54.436 46.9384C54.5002 46.8252 54.5339 46.6973 54.5337 46.5673V19.0996C54.5341 18.9675 54.5001 18.8375 54.4349 18.7225C54.3698 18.6074 54.2757 18.5112 54.162 18.4433L30.2692 4.68302C30.1572 4.61793 30.0298 4.58364 29.9002 4.58364C29.7705 4.58364 29.6432 4.61793 29.5312 4.68302L5.63832 18.4433C5.52369 18.5093 5.4285 18.6042 5.36233 18.7185C5.29615 18.8328 5.26133 18.9624 5.26135 19.0943V46.615C5.26103 46.7449 5.29526 46.8726 5.36055 46.9851C5.42583 47.0976 5.51984 47.1908 5.63302 47.2553L12.1797 51.0236C15.7211 52.7754 17.9246 50.6848 17.9246 48.589V21.4442C17.9238 21.3532 17.9414 21.2629 17.9761 21.1788C18.0109 21.0946 18.0622 21.0183 18.127 20.9542C18.1918 20.8901 18.2688 20.8395 18.3535 20.8055C18.4382 20.7715 18.5288 20.7547 18.6201 20.7561H21.6412C21.7321 20.7554 21.8221 20.7727 21.9062 20.8071C21.9903 20.8414 22.0666 20.8921 22.1309 20.9561C22.1951 21.0201 22.2459 21.0962 22.2804 21.18C22.3148 21.2638 22.3322 21.3536 22.3315 21.4442V48.5996C22.3315 53.3258 19.7457 56.009 15.2539 56.009C13.8734 56.009 12.7796 56.009 9.74258 54.5166L3.44018 50.9389C2.67806 50.496 2.04565 49.8617 1.60595 49.0994C1.16625 48.337 0.93461 47.4732 0.934091 46.5938L0.934091 19.0731C0.932468 18.1934 1.16321 17.3286 1.60312 16.5659C2.04303 15.8032 2.67661 15.1693 3.44018 14.7281L27.3702 0.967734C28.1414 0.548521 29.0058 0.328857 29.8842 0.328857C30.7627 0.328857 31.6271 0.548521 32.3983 0.967734L56.2911 14.7281C57.0599 15.1711 57.6975 15.8087 58.1395 16.5764C58.5814 17.3441 58.812 18.2145 58.8079 19.0996V46.6203C58.8057 47.4993 58.5734 48.3626 58.1339 49.1246C57.6943 49.8867 57.0628 50.5212 56.3018 50.9653L32.4089 64.7257C31.643 65.1637 30.7752 65.3936 29.8922 65.3925L29.8816 65.3819Z" fill="#5D594F"/>
</svg>
