<svg width="66" height="66" viewBox="0 0 66 66" fill="none" xmlns="http://www.w3.org/2000/svg">
<path d="M59.6166 0.211914H7.285C3.77749 0.211914 0.934082 3.05532 0.934082 6.56283V58.8944C0.934082 62.4019 3.77749 65.2453 7.285 65.2453H59.6166C63.1241 65.2453 65.9675 62.4019 65.9675 58.8944V6.56283C65.9675 3.05532 63.1241 0.211914 59.6166 0.211914Z" fill="#5D594F"/>
<path d="M59.6166 0.211914H7.285C3.77749 0.211914 0.934082 3.05532 0.934082 6.56283V58.8944C0.934082 62.4019 3.77749 65.2453 7.285 65.2453H59.6166C63.1241 65.2453 65.9675 62.4019 65.9675 58.8944V6.56283C65.9675 3.05532 63.1241 0.211914 59.6166 0.211914Z" fill="#5D594F"/>
<path fill-rule="evenodd" clip-rule="evenodd" d="M41.1913 51.9621V58.3208C42.225 58.8507 43.4475 59.248 44.8589 59.513C46.2704 59.7779 47.7579 59.9104 49.3217 59.9104C50.8458 59.9104 52.2936 59.7647 53.6652 59.4732C55.0369 59.1818 56.2397 58.7016 57.2733 58.0326C58.307 57.3637 59.1254 56.4893 59.7283 55.4096C60.3313 54.33 60.6328 52.9954 60.6328 51.4058C60.6328 50.2532 60.4606 49.2431 60.116 48.3755C59.7714 47.5078 59.2745 46.7362 58.6251 46.0606C57.9757 45.385 57.1971 44.7788 56.2893 44.2423C55.3815 43.7058 54.3577 43.1991 53.218 42.7223C52.3831 42.3778 51.6343 42.0434 50.9717 41.7188C50.309 41.3942 49.7458 41.063 49.282 40.7253C48.8181 40.3874 48.4603 40.0297 48.2085 39.6522C47.9568 39.2746 47.8308 38.8475 47.8308 38.3705C47.8308 37.9334 47.9434 37.5393 48.1688 37.1882C48.3941 36.8371 48.7122 36.5358 49.1229 36.2841C49.5338 36.0325 50.0373 35.837 50.6337 35.6979C51.2302 35.5588 51.8927 35.4893 52.6217 35.4893C53.1517 35.4893 53.7116 35.5291 54.3014 35.6085C54.8911 35.688 55.4841 35.8106 56.0806 35.9761C56.677 36.1417 57.2567 36.3504 57.82 36.602C58.3832 36.8538 58.9034 37.1452 59.3804 37.4764V31.535C58.4131 31.1641 57.3561 30.8892 56.2098 30.7104C55.0635 30.5316 53.7481 30.4421 52.2638 30.4421C50.753 30.4421 49.3217 30.6045 47.97 30.929C46.6183 31.2535 45.4289 31.7602 44.4017 32.449C43.3746 33.138 42.5629 34.0155 41.9666 35.082C41.3702 36.1483 41.072 37.4233 41.072 38.907C41.072 40.8014 41.6187 42.4176 42.7121 43.7556C43.8053 45.0935 45.4652 46.2261 47.6917 47.1534C48.5663 47.5111 49.3814 47.8621 50.1368 48.2065C50.8922 48.551 51.5449 48.9087 52.0948 49.2796C52.6448 49.6505 53.0788 50.0545 53.397 50.4917C53.715 50.9288 53.8741 51.4256 53.8741 51.982C53.8741 52.3927 53.7746 52.7735 53.5758 53.1246C53.377 53.4756 53.0755 53.7802 52.6713 54.0386C52.2672 54.297 51.7635 54.4989 51.1606 54.6446C50.5575 54.7904 49.8519 54.8632 49.0434 54.8632C47.6651 54.8632 46.3002 54.6215 44.9484 54.1379C43.5966 53.6545 42.3442 52.9292 41.1913 51.9621ZM30.5015 36.2954H38.6587V31.0772H15.9224V36.2954H24.0396V59.5293H30.5015V36.2954Z" fill="#D9D9D9"/>
</svg>
