<svg width="56" height="55" viewBox="0 0 56 55" fill="none" xmlns="http://www.w3.org/2000/svg">
<path d="M0.934082 27.2645C0.934082 38.0013 7.17274 47.2811 16.2235 51.6774L3.28388 16.2257C1.7791 19.598 0.934082 23.3332 0.934082 27.2645ZM46.3717 25.8963C46.3717 22.5426 45.1676 20.2219 44.1357 18.4165C42.7609 16.1806 41.4721 14.2892 41.4721 12.0547C41.4721 9.5605 43.3623 7.2399 46.0259 7.2399C46.1478 7.2399 46.2617 7.25445 46.377 7.26103C41.5529 2.83972 35.1223 0.138916 28.0596 0.138916C18.5824 0.138916 10.2457 5.00138 5.39511 12.3645C6.03224 12.3857 6.63222 12.399 7.14089 12.399C9.97812 12.399 14.3716 12.0546 14.3716 12.0546C15.8325 11.9672 16.0061 14.1156 14.5451 14.2891C14.5451 14.2891 13.0748 14.4613 11.4403 14.546L21.3188 43.9288L27.2541 26.1253L23.0288 14.546C21.5665 14.4613 20.1836 14.2891 20.1836 14.2891C18.7225 14.2016 18.8935 11.9671 20.3558 12.0546C20.3558 12.0546 24.8341 12.399 27.5004 12.399C30.3363 12.399 34.7299 12.0546 34.7299 12.0546C36.1922 11.9672 36.3644 14.1156 34.9021 14.2891C34.9021 14.2891 33.4305 14.4613 31.7987 14.546L41.6017 43.7048L44.3077 34.666C45.6829 31.1401 46.3717 28.2168 46.3717 25.8963ZM28.5364 29.6368L20.3971 53.2881C22.8277 54.0019 25.3986 54.3927 28.0596 54.3927C31.2201 54.3927 34.2493 53.847 37.068 52.855C36.9964 52.7384 36.9289 52.6152 36.8746 52.4802L28.5364 29.6368ZM51.8632 14.252C51.9798 15.1156 52.0461 16.0428 52.0461 17.0402C52.0461 19.7926 51.5294 22.8882 49.9837 26.7559L41.6986 50.7105C49.7625 46.0082 55.1852 37.2728 55.1852 27.2645C55.1852 22.549 53.9799 18.1145 51.8632 14.252Z" fill="#5D594F"/>
</svg>
